<?xml version="1.0" encoding="UTF-8" standalone="no"?>
<svg
   xmlns:dc="http://purl.org/dc/elements/1.1/"
   xmlns:cc="http://creativecommons.org/ns#"
   xmlns:rdf="http://www.w3.org/1999/02/22-rdf-syntax-ns#"
   xmlns:svg="http://www.w3.org/2000/svg"
   xmlns="http://www.w3.org/2000/svg"
   xmlns:sodipodi="http://sodipodi.sourceforge.net/DTD/sodipodi-0.dtd"
   xmlns:inkscape="http://www.inkscape.org/namespaces/inkscape"
   version="1.1"
   id="Layer_1"
   x="0px"
   y="0px"
   width="100px"
   height="100px"
   viewBox="5.0 -10.0 100.0 135.0"
   enable-background="new 0 0 100 100"
   xml:space="preserve"
   inkscape:version="0.48.5 r10040"
   sodipodi:docname="décollage.svg"><metadata
     id="metadata19"><rdf:RDF><cc:Work
         rdf:about=""><dc:format>image/svg+xml</dc:format><dc:type
           rdf:resource="http://purl.org/dc/dcmitype/StillImage" /><dc:title></dc:title></cc:Work></rdf:RDF></metadata><defs
     id="defs17" /><sodipodi:namedview
     pagecolor="#ffffff"
     bordercolor="#666666"
     borderopacity="1"
     objecttolerance="10"
     gridtolerance="10"
     guidetolerance="10"
     inkscape:pageopacity="0"
     inkscape:pageshadow="2"
     inkscape:window-width="640"
     inkscape:window-height="480"
     id="namedview15"
     showgrid="false"
     inkscape:zoom="2.36"
     inkscape:cx="50"
     inkscape:cy="50"
     inkscape:window-x="0"
     inkscape:window-y="27"
     inkscape:window-maximized="0"
     inkscape:current-layer="Layer_1" /><g
     id="g2996"
     inkscape:export-filename="/home/micky/Dropbox/La Cuisine/website/décollage.png"
     inkscape:export-xdpi="90"
     inkscape:export-ydpi="90"><path
       id="path3"
       d="M93.319,16.537c-16.169,18.748-32.342,37.5-48.507,56.246c-1.865,2.162,1.482,5.05,3.347,2.887  c16.168-18.746,32.338-37.499,48.507-56.246C98.531,17.263,95.182,14.375,93.319,16.537L93.319,16.537z" /><path
       id="path5"
       d="M87.443,4.07C72.492,21.406,57.539,38.744,42.591,56.078c-1.792,2.078,1.43,4.854,3.22,2.776  C60.76,41.522,75.714,24.184,90.665,6.848C92.452,4.774,89.233,1.996,87.443,4.07L87.443,4.07z" /><path
       id="path7"
       d="M69.148,6.2C52.981,24.949,36.81,43.7,20.64,62.448c-1.861,2.158,1.484,5.046,3.349,2.886  C40.157,46.586,56.327,27.835,72.496,9.087C74.358,6.929,71.012,4.042,69.148,6.2L69.148,6.2z" /><path
       id="path9"
       d="M61.492,90.674c-7.005,8.124-19.313,9.033-27.438,2.027c-0.463-0.399-0.833-0.801-1.154-1.182  c-7.065,4.116-16.149,3.386-22.494-2.086c-8.125-7.006-9.034-19.314-2.029-27.437c0.405-0.469,0.831-0.921,1.279-1.348  C3.569,53.517,3.495,43.064,9.88,35.658c6.011-6.969,16.194-8.772,24.214-4.287c1.206,0.677,1.639,2.203,0.963,3.411  c-0.677,1.203-2.206,1.643-3.414,0.966c-5.95-3.33-13.505-1.99-17.97,3.187C8.44,45.004,9.06,53.825,15.082,59.02  c0.63,0.543,0.951,1.361,0.855,2.192c-0.098,0.823-0.598,1.55-1.335,1.933l-0.472,0.245c-0.705,0.561-1.363,1.192-1.957,1.881  C6.972,71.3,7.647,80.437,13.68,85.64c5.214,4.496,12.923,4.682,18.33,0.441c0.594-0.469,1.371-0.638,2.105-0.475  c0.739,0.172,1.361,0.663,1.694,1.344l0.238,0.487c0.097,0.119,0.188,0.237,0.28,0.354c0.354,0.449,0.637,0.805,0.999,1.117  c6.032,5.201,15.165,4.525,20.367-1.504c3.844-4.453,4.607-10.72,1.95-15.968c-0.628-1.234-0.134-2.743,1.104-3.368  c1.232-0.625,2.742-0.132,3.366,1.102C67.695,76.233,66.665,84.675,61.492,90.674z" /></g></svg>