<svg xmlns="http://www.w3.org/2000/svg" xmlns:xlink="http://www.w3.org/1999/xlink" version="1.1" id="Calque_1" x="0px" y="0px" width="100px" height="100px" viewBox="5.0 -10.0 100.0 135.0" enable-background="new 0 0 100 100" xml:space="preserve">
<g>
	<g>
		<g>
			<path d="M33.799,47.655c0.517,0.517,0.517,1.36,0,1.878c-0.259,0.259-0.597,0.385-0.935,0.385c-0.338,0-0.677-0.126-0.942-0.385     l-2.846-2.846l-2.846,2.846c-0.259,0.259-0.597,0.385-0.935,0.385c-0.345,0-0.683-0.126-0.942-0.385     c-0.517-0.517-0.517-1.36,0-1.878l2.846-2.846l-2.846-2.846c-0.517-0.524-0.517-1.36,0-1.877c0.517-0.517,1.36-0.517,1.878,0     l2.846,2.846l2.846-2.846c0.517-0.517,1.36-0.517,1.877,0c0.517,0.517,0.517,1.353,0,1.877l-2.846,2.846L33.799,47.655z"/>
		</g>
	</g>
	<g>
		<g>
			<path d="M47.837,35.653c0.517,0.517,0.517,1.36,0,1.878c-0.259,0.259-0.597,0.391-0.935,0.391c-0.338,0-0.677-0.133-0.935-0.391     l-2.853-2.846l-2.846,2.846c-0.259,0.259-0.597,0.391-0.935,0.391c-0.338,0-0.683-0.133-0.942-0.391     c-0.517-0.517-0.517-1.36,0-1.878l2.846-2.846l-2.846-2.846c-0.517-0.517-0.517-1.36,0-1.878c0.517-0.517,1.36-0.517,1.877,0     l2.846,2.846l2.853-2.846c0.517-0.517,1.353-0.517,1.871,0c0.517,0.517,0.517,1.36,0,1.878l-2.846,2.846L47.837,35.653z"/>
		</g>
	</g>
	<g>
		<g>
			<path d="M73.266,53.732c0.517,0.517,0.517,1.36,0,1.878c-0.259,0.259-0.597,0.391-0.935,0.391c-0.345,0-0.683-0.133-0.942-0.391     l-2.846-2.846l-2.846,2.846c-0.259,0.259-0.597,0.391-0.942,0.391c-0.338,0-0.677-0.133-0.935-0.391     c-0.517-0.517-0.517-1.36,0-1.878l2.846-2.846l-2.846-2.846c-0.517-0.517-0.517-1.36,0-1.878c0.517-0.517,1.36-0.517,1.878,0     l2.846,2.846l2.846-2.846c0.517-0.517,1.36-0.517,1.877,0c0.517,0.517,0.517,1.36,0,1.878l-2.846,2.846L73.266,53.732z"/>
		</g>
	</g>
	<g>
		<g>
			<path d="M65.073,25.948l-8.883-2.196c-0.71-0.179-1.433,0.252-1.605,0.969l-2.203,8.883c-0.172,0.71,0.259,1.433,0.969,1.605     c0.106,0.027,0.212,0.04,0.318,0.04c0.597,0,1.141-0.405,1.287-1.008l1.433-5.778l0.564,0.935     c2.203,3.655,2.853,7.954,1.824,12.101c-1.022,4.146-3.602,7.643-7.264,9.852c-0.564,0.338-1.148,0.644-1.745,0.909     c-0.962-1.678-2.601-2.952-4.637-3.383c-0.478-0.1-0.962-0.146-1.446-0.146c-3.297,0-6.176,2.342-6.853,5.566     c-0.796,3.781,1.632,7.503,5.414,8.299c0.478,0.099,0.969,0.153,1.453,0.153c3.291,0,6.17-2.342,6.853-5.566     c0.172-0.81,0.192-1.619,0.08-2.402c0.776-0.332,1.533-0.723,2.256-1.161c4.266-2.568,7.271-6.648,8.472-11.484     c1.194-4.83,0.438-9.845-2.136-14.104l-0.564-0.935l5.778,1.433c0.71,0.172,1.433-0.259,1.612-0.975     C66.221,26.843,65.789,26.127,65.073,25.948z M47.95,56.631c-0.418,2.01-2.209,3.463-4.253,3.463     c-0.305,0-0.604-0.033-0.902-0.093c-2.355-0.498-3.861-2.806-3.37-5.161c0.425-2.004,2.216-3.457,4.259-3.457     c0.299,0,0.604,0.027,0.902,0.093C46.935,51.967,48.448,54.282,47.95,56.631z"/>
		</g>
	</g>
</g>
<g>
	<g>
		<path d="M50,69.482c-0.053,0-0.113,0.006-0.166,0.013c0.013-0.007,0.02-0.007,0.033-0.007C49.914,69.482,49.954,69.482,50,69.482z    "/>
	</g>
	<g>
		<path d="M49.867,69.488c-0.013,0-0.02,0-0.033,0.007c0.053-0.007,0.113-0.013,0.166-0.013    C49.954,69.482,49.914,69.482,49.867,69.488z"/>
		<path d="M93.673,13.794H51.327V8.466c0-0.73-0.59-1.327-1.327-1.327c-0.73,0-1.327,0.597-1.327,1.327v5.327H6.327    C5.597,13.794,5,14.384,5,15.121c0,0.73,0.597,1.327,1.327,1.327h3.49v54.361c0,0.736,0.59,1.327,1.327,1.327h34.584    L18.925,90.439c-0.61,0.411-0.763,1.234-0.352,1.844c0.259,0.372,0.677,0.577,1.095,0.577c0.259,0,0.524-0.073,0.75-0.232    l28.255-19.292v18.198c0,0.73,0.597,1.327,1.327,1.327c0.736,0,1.327-0.597,1.327-1.327V73.316l28.282,19.312    c0.232,0.159,0.491,0.232,0.75,0.232c0.418,0,0.836-0.206,1.095-0.577c0.411-0.61,0.259-1.433-0.345-1.844L54.299,72.135h34.564    c0.73,0,1.327-0.591,1.327-1.327V16.447h3.483c0.736,0,1.327-0.597,1.327-1.327C95,14.384,94.41,13.794,93.673,13.794z     M87.536,69.482H50c-0.053,0-0.113,0.006-0.166,0.013c0.013-0.007,0.02-0.007,0.033-0.007c0.046-0.006,0.086-0.006,0.133-0.006    H12.47V16.447h75.066V69.482z"/>
	</g>
	<g>
		<path d="M50,69.482c-0.053,0-0.113,0.006-0.166,0.013c0.013-0.007,0.02-0.007,0.033-0.007C49.914,69.482,49.954,69.482,50,69.482z    "/>
	</g>
</g>
<text x="0.0" y="117.5" font-size="5.0" font-weight="bold" font-family="Helvetica Neue, Helvetica, Arial-Unicode, Arial, Sans-serif" fill="#000000">Created by Garrett Knoll</text><text x="0.0" y="122.5" font-size="5.0" font-weight="bold" font-family="Helvetica Neue, Helvetica, Arial-Unicode, Arial, Sans-serif" fill="#000000">from the Noun Project</text></svg>