<svg xmlns="http://www.w3.org/2000/svg" xmlns:xlink="http://www.w3.org/1999/xlink" version="1.1" id="Ebene_1" x="0px" y="0px" width="100px" height="100px" viewBox="5.0 -10.0 100.0 135.0" enable-background="new 0 0 100 100" xml:space="preserve">
<path d="M68.2,45.6l6.4-27.9c0.4-1.5,0.2-3.1-0.6-4.4c-0.8-1.4-2.1-2.4-3.6-2.8c-3.2-0.8-6.4,1-7.3,4.1l-6.8,24.2l-5-27  c-0.3-1.7-1.2-3.2-2.7-4.2c-1.4-1-3.1-1.4-4.8-1.1c-1.7,0.3-3.2,1.2-4.2,2.7c-1,1.4-1.4,3.1-1.1,4.8l3.8,21.5c-0.3,0-0.5,0-0.8,0  c-3,0-5.6,2.1-6.2,4.9c-1-0.7-2.3-1.1-3.6-1.1c-3.6,0-6.4,2.9-6.4,6.4v15.4c0,0.2,0,0.4,0,0.6v0.6c0,13,2.2,18.6,3.8,22.7  c0.9,2.3,1.6,4,1.6,6.4c0,0.8,0.7,1.5,1.5,1.5s1.5-0.7,1.5-1.5c0-3-0.8-5.1-1.8-7.5c-1.3-3.4-3.1-7.9-3.5-17.2  c1,0.6,2.1,0.9,3.3,0.9c3,0,5.6-2.1,6.2-4.9c1,0.7,2.3,1.1,3.6,1.1c3.6,0,6.4-2.9,6.4-6.4v-8.5c1.8,2.6,4.9,4,7.7,5.2l2.2,6.9  c-7.5,1.5-10.6,11.3-10.7,11.7c-0.2,0.8,0.2,1.6,1,1.9c0.8,0.2,1.6-0.2,1.9-1c0-0.1,3-9.8,9.8-9.8c0.5,0,0.9-0.2,1.2-0.6  s0.4-0.9,0.2-1.3l-3-9.3c-0.1-0.4-0.4-0.8-0.8-0.9C51.3,49,48.4,47,50,41.5l9.6,3.8c1.4,0.6,2.5,1.4,3.4,2.8l4.4,9.6  c0.5,1.7,0.5,2.4,0.5,4.4l0,0.2c-0.3,10.7-2.8,16.3-4.8,20.8c-1.3,2.9-2.4,5.4-2.4,8.4c0,0.8,0.7,1.5,1.5,1.5s1.5-0.7,1.5-1.5  c0-2.4,0.9-4.4,2.1-7.2c2-4.5,4.7-10.6,5.1-21.9v-0.3c0-2.2,0-3.2-0.7-5.4c0-0.1,0-0.1-0.1-0.2L67.6,51c0,0,0-0.1,0-0.1L68.2,45.6z   M35.1,61.2c0,1.9-1.5,3.4-3.4,3.4c-1.8,0-3.3-1.4-3.4-3.1v-0.3c0-0.1,0-0.2,0-0.3V45.8c0-1.9,1.5-3.4,3.4-3.4s3.4,1.5,3.4,3.4v11.6  V61.2z M45,57.4c0,1.9-1.5,3.4-3.4,3.4s-3.4-1.5-3.4-3.4V45.8V42c0-1.9,1.5-3.4,3.4-3.4S45,40.1,45,42V57.4z M49.7,38.2  c-0.4-0.1-0.8-0.1-1.2,0c-0.4,0.2-0.7,0.5-0.8,0.8c-0.1,0.2-0.1,0.4-0.2,0.5c-0.4-1-1.1-1.8-1.9-2.5l-4.1-23.4  c-0.2-0.9,0-1.8,0.6-2.6c0.5-0.8,1.3-1.3,2.2-1.4c0.9-0.2,1.8,0,2.6,0.6c0.8,0.5,1.3,1.3,1.4,2.2l5,27.2L49.7,38.2z M60.7,42.5  l-2.1-0.8l7.4-26.2c0.4-1.5,2.1-2.5,3.6-2c0.8,0.2,1.4,0.7,1.8,1.4c0.4,0.7,0.5,1.4,0.3,2.2l-6.4,28c0,0.1,0,0.1,0,0.2L65.1,46  C63.9,44.4,62.5,43.3,60.7,42.5z"/>
<text x="0.0" y="117.5" font-size="5.0" font-weight="bold" font-family="Helvetica Neue, Helvetica, Arial-Unicode, Arial, Sans-serif" fill="#000000">Created by Till Teenck</text><text x="0.0" y="122.5" font-size="5.0" font-weight="bold" font-family="Helvetica Neue, Helvetica, Arial-Unicode, Arial, Sans-serif" fill="#000000">from the Noun Project</text></svg>